<?xml version="1.0" encoding="UTF-8" standalone="no"?>
<svg
   xmlns:dc="http://purl.org/dc/elements/1.1/"
   xmlns:cc="http://creativecommons.org/ns#"
   xmlns:rdf="http://www.w3.org/1999/02/22-rdf-syntax-ns#"
   xmlns:svg="http://www.w3.org/2000/svg"
   xmlns="http://www.w3.org/2000/svg"
   xmlns:sodipodi="http://sodipodi.sourceforge.net/DTD/sodipodi-0.dtd"
   xmlns:inkscape="http://www.inkscape.org/namespaces/inkscape"
   version="1.1"
   viewBox="0 0 16 16"
   id="svg17"
   sodipodi:docname="go-to-done-symbolic.svg"
   inkscape:version="0.92.3 (2405546, 2018-03-11)">
  <sodipodi:namedview
     pagecolor="#ffffff"
     bordercolor="#666666"
     borderopacity="1"
     objecttolerance="10"
     gridtolerance="10"
     guidetolerance="10"
     inkscape:pageopacity="0"
     inkscape:pageshadow="2"
     inkscape:window-width="1920"
     inkscape:window-height="1017"
     id="namedview19"
     showgrid="false"
     inkscape:zoom="10.429825"
     inkscape:cx="-29.054516"
     inkscape:cy="-6.6365346"
     inkscape:window-x="0"
     inkscape:window-y="30"
     inkscape:window-maximized="1"
     inkscape:current-layer="svg17" />
  <defs>
  </defs>
  <metadata
     id="metadata9">
    <rdf:RDF>
      <cc:Work
         rdf:about="">
        <dc:format>image/svg+xml</dc:format>
        <dc:type
           rdf:resource="http://purl.org/dc/dcmitype/StillImage" />
        <dc:title />
      </cc:Work>
    </rdf:RDF>
  </metadata>
  <path
     style="display:inline;fill:#bebebe;fill-opacity:1;stroke:none;stroke-width:0.63142788;stroke-opacity:1"
     d="M 13.458984 0.99804688 C 13.178057 1.0108634 12.911768 1.040522 12.654297 1.0976562 C 12.135225 1.2128414 11.654399 1.4546614 11.236328 1.8554688 L 11.222656 1.8691406 L 11.208984 1.8828125 C 8.8118347 4.5801473 6.7705493 7.5372667 4.8320312 10.525391 C 4.7846415 10.436016 4.761825 10.393156 4.6953125 10.271484 C 4.6197561 10.11606 4.4976922 9.6819672 4.3554688 9.3007812 C 4.284357 9.1101884 4.2117543 8.9281317 4.0742188 8.75 C 4.0054508 8.6609342 3.9157342 8.5654737 3.7714844 8.4980469 C 3.6272346 8.4306201 3.4223024 8.4182624 3.2636719 8.4746094 L 3.3066406 8.4609375 L 3.0175781 8.5351562 L 2.7246094 8.6347656 C 2.3608409 8.7329499 1.9896179 8.8822415 1.6699219 9.1425781 C 1.3502258 9.4029147 1.0933407 9.791768 1.0175781 10.269531 L 1.0058594 10.337891 L 1.015625 10.404297 C 1.1339868 11.393046 1.5095433 12.272401 1.7832031 13.103516 L 1.7910156 13.130859 L 1.8046875 13.158203 C 1.9202286 13.404291 2.0764175 13.8104 2.2988281 14.183594 C 2.4100335 14.370191 2.537016 14.552763 2.7128906 14.708984 C 2.8887652 14.865206 3.1346626 14.999671 3.4199219 15.005859 L 3.4277344 15.005859 L 3.4335938 15.005859 C 3.7906874 15.003059 4.1748123 15.022306 4.53125 15.003906 C 4.8876877 14.985546 5.2607801 14.979886 5.5683594 14.636719 L 5.5917969 14.609375 L 5.6113281 14.580078 C 8.1613979 10.735437 10.948722 6.9282132 13.927734 3.3945312 L 13.945312 3.375 C 14.134666 3.1718443 14.451927 2.7937627 14.697266 2.4082031 C 14.822914 2.2107414 14.934259 2.0351618 14.982422 1.7773438 C 15.006503 1.6484347 15.019949 1.457958 14.886719 1.265625 C 14.75388 1.0738564 14.51564 1.0013981 14.355469 1 L 14.353516 1 C 14.035479 0.9892558 13.739912 0.98523039 13.458984 0.99804688 z "
     id="path11" />
</svg>
