<?xml version="1.0" encoding="UTF-8" standalone="no"?>
<!-- Created with Inkscape (http://www.inkscape.org/) -->

<svg
   xmlns:dc="http://purl.org/dc/elements/1.1/"
   xmlns:cc="http://creativecommons.org/ns#"
   xmlns:rdf="http://www.w3.org/1999/02/22-rdf-syntax-ns#"
   xmlns:svg="http://www.w3.org/2000/svg"
   xmlns="http://www.w3.org/2000/svg"
   xmlns:sodipodi="http://sodipodi.sourceforge.net/DTD/sodipodi-0.dtd"
   xmlns:inkscape="http://www.inkscape.org/namespaces/inkscape"
   width="24"
   height="24"
   id="svg4951"
   version="1.1"
   inkscape:version="0.92.3 (2405546, 2018-03-11)"
   sodipodi:docname="go-for-it-symbolic.svg">
  <defs
     id="defs2" />
  <sodipodi:namedview
     id="base"
     pagecolor="#ffffff"
     bordercolor="#666666"
     borderopacity="1.0"
     inkscape:pageopacity="0.0"
     inkscape:pageshadow="2"
     inkscape:zoom="22.627416"
     inkscape:cx="3.2264626"
     inkscape:cy="10.181254"
     inkscape:current-layer="layer1"
     showgrid="true"
     inkscape:grid-bbox="true"
     inkscape:document-units="px"
     inkscape:window-width="1920"
     inkscape:window-height="1017"
     inkscape:window-x="0"
     inkscape:window-y="30"
     inkscape:window-maximized="1"
     showborder="true"
     inkscape:showpageshadow="true" />
  <metadata
     id="metadata4956">
    <rdf:RDF>
      <cc:Work
         rdf:about="">
        <dc:format>image/svg+xml</dc:format>
        <dc:type
           rdf:resource="http://purl.org/dc/dcmitype/StillImage" />
        <dc:title />
      </cc:Work>
    </rdf:RDF>
  </metadata>
  <path
    style="color:#bebebe;overflow:visible;isolation:auto;mix-blend-mode:normal;fill:#bebebe;marker:none"
    d="M 11.960938,1.0859375 C 5.9177384,1.0859375 1,6.003679 1,12.046875 c 0,6.043195 4.9177382,10.960938 10.960938,10.960937 1.96401,0 3.802174,-0.530624 5.398437,-1.439453 -0.07244,0.463828 -0.003,0.923911 0.34375,1.25586 l 0.560547,0.607422 0.01172,0.01172 c 0.45628,0.436849 1.113558,0.386071 1.703125,0.164063 0.589567,-0.222008 1.197414,-0.641664 1.748046,-1.216797 0.549694,-0.574142 0.943085,-1.195582 1.140626,-1.791016 0.197538,-0.595434 0.218739,-1.253765 -0.236329,-1.689453 l -0.574218,-0.625 -0.01172,-0.0098 c -0.227839,-0.218138 -0.533505,-0.31555 -0.824219,-0.326172 -0.01422,-5.19e-4 -0.02873,0.006 -0.04297,0.0059 1.099617,-1.707236 1.746096,-3.731319 1.746094,-5.908203 0,-2.499188 -0.851325,-4.7985342 -2.265625,-6.6445312 l -1.740234,2.0644531 c 0.875924,1.310589 1.388672,2.8851961 1.388672,4.5800781 2e-6,4.558938 -3.69497,8.253906 -8.253907,8.253906 -4.5589327,10e-7 -8.2539059,-3.694968 -8.2539059,-8.253906 0,-0.765386 0.1117442,-1.503746 0.3066407,-2.2070312 C 4.0650756,9.5922796 4.0881431,9.3336399 4.21875,9.1074219 L 5.1308594,7.5273438 c 0.016161,-0.02799 0.044108,-0.044253 0.0625,-0.070313 1.4810143,-2.209374 3.9993912,-3.6640624 6.8593746,-3.6640624 1.334456,0 2.589673,0.3245467 3.705078,0.8867187 L 17.5,2.6035156 C 15.872094,1.6450266 13.982304,1.0859375 11.960938,1.0859375 Z m -0.31836,3.0058594 c -0.06783,0 -0.123047,0.05326 -0.123047,0.1210937 V 5.9375 c 0,0.06783 0.05522,0.1230469 0.123047,0.1230469 h 0.47461 c 0.06783,0 0.121093,-0.05522 0.121093,-0.1230469 V 4.2128906 c 0,-0.06783 -0.05327,-0.1210937 -0.121093,-0.1210937 z M 6.4570312,6.2988281 c -0.031297,0 -0.06391,0.011166 -0.087891,0.035156 l -0.333984,0.3359378 c -0.047962,0.04796 -0.047962,0.123913 0,0.171875 L 7.2539062,8.0625 c 0.047962,0.04796 0.1258661,0.04796 0.1738282,0 L 7.7617188,7.7265625 c 0.047962,-0.04796 0.047962,-0.1258661 0,-0.1738281 l -1.21875,-1.21875 c -0.023981,-0.02398 -0.054641,-0.035156 -0.085938,-0.035156 z m 10.7636718,0 c -0.0313,0 -0.06196,0.011166 -0.08594,0.035156 l -1.21875,1.21875 c -0.04796,0.04796 -0.04796,0.1258661 0,0.1738281 L 16.251953,8.0625 c 0.04796,0.04796 0.123913,0.04796 0.171875,0 l 1.220703,-1.2207031 c 0.04796,-0.04796 0.04796,-0.123913 0,-0.171875 L 17.308594,6.3339844 c -0.02398,-0.02398 -0.05659,-0.035156 -0.08789,-0.035156 z m -5.259765,3.609375 c -1.180264,0 -2.1386724,0.9584089 -2.1386724,2.1386719 0,1.03273 0.7329014,1.896121 1.7070314,2.095703 6.16e-4,1.27e-4 0.0013,-1.26e-4 0.002,0 0.138582,0.02826 0.282816,0.04297 0.429688,0.04297 0.147532,0 0.292426,-0.01446 0.43164,-0.04297 0.417516,-0.08557 0.791606,-0.293559 1.082031,-0.583984 0.387624,-0.387135 0.626954,-0.921588 0.626953,-1.511719 0,-0.590132 -0.239329,-1.124584 -0.626953,-1.511719 -0.38767,-0.387135 -0.923588,-0.6269529 -1.513718,-0.6269529 z M 4.0292969,11.703125 c -0.067829,0 -0.1210938,0.05522 -0.1210938,0.123047 v 0.474609 c 0,0.06783 0.053265,0.121094 0.1210938,0.121094 h 1.7246093 c 0.067829,0 0.1230469,-0.05326 0.1230469,-0.121094 v -0.474609 c 0,-0.06783 -0.055218,-0.123047 -0.1230469,-0.123047 z m 13.9746091,0 c -0.06783,0 -0.121094,0.05522 -0.121094,0.123047 v 0.474609 c 0,0.06783 0.05327,0.121094 0.121094,0.121094 h 1.72461 c 0.06783,0 0.123047,-0.05326 0.123046,-0.121094 v -0.474609 c 0,-0.06783 -0.05522,-0.123047 -0.123046,-0.123047 z M 7.3398438,16.179688 c -0.031297,0 -0.061955,0.01118 -0.085938,0.03516 l -1.21875,1.220703 c -0.047962,0.04796 -0.047962,0.123913 0,0.171875 l 0.3339844,0.335937 c 0.047962,0.04796 0.1258659,0.04796 0.1738282,0 l 1.21875,-1.21875 c 0.047962,-0.04796 0.047962,-0.125866 0,-0.173828 l -0.333984,-0.335941 c -0.023981,-0.02398 -0.056594,-0.03516 -0.087891,-0.03516 z m 8.9980472,0 c -0.0313,0 -0.06196,0.01118 -0.08594,0.03516 l -0.335937,0.335937 c -0.04796,0.04796 -0.04796,0.125866 0,0.173828 l 1.21875,1.21875 c 0.04796,0.04796 0.125866,0.04796 0.173828,0 l 0.335937,-0.335937 c 0.04796,-0.04796 0.04796,-0.123913 0,-0.171875 l -1.220703,-1.220703 c -0.02398,-0.02398 -0.05464,-0.03516 -0.08594,-0.03516 z m 3.693359,1.511718 c 0.236588,0.0086 0.497299,0.08955 0.691406,0.275391 l 0.0098,0.01172 0.02148,0.02344 c -0.210908,0.04499 -0.42163,0.112388 -0.632812,0.208985 -0.03583,-0.007 -0.06811,-0.01809 -0.107422,-0.01953 -0.441907,-0.01615 -1.080116,0.317164 -1.634766,0.896485 -0.597693,0.624278 -0.901143,1.337297 -0.804687,1.77539 -0.03726,0.08869 -0.07851,0.177892 -0.107422,0.265625 -0.04066,0.123365 -0.06859,0.248994 -0.0918,0.375 l -0.01367,-0.01563 c -0.389587,-0.372997 -0.361578,-0.915871 -0.208984,-1.378906 0.152594,-0.463035 0.452566,-0.934123 0.867187,-1.367187 0.620712,-0.648324 1.301859,-1.076722 2.011719,-1.050782 z m -8.388672,0.375 c -0.06783,0 -0.123047,0.05326 -0.123047,0.121094 v 1.724609 c 0,0.06783 0.05522,0.123047 0.123047,0.123047 h 0.47461 c 0.06783,0 0.121093,-0.05522 0.121093,-0.123047 V 18.1875 c 0,-0.06783 -0.05327,-0.121094 -0.121093,-0.121094 z"
    id="path1214"
    inkscape:connector-curvature="0"
  />
  <path
   id="path1233-5"
   style="color:#bebebe;display:inline;fill:#bebebe;fill-opacity:1;stroke:none;stroke-width:1;stroke-miterlimit:4;stroke-dasharray:none"
   d="m 19.503906,1.8261719 c -0.03118,0.00273 -0.06218,0.016989 -0.08398,0.042969 l -6.486328,7.7324215 c 0.724791,0.290196 1.283876,0.8922296 1.527344,1.6386716 l 6.662109,-7.9414056 c 0.0436,-0.05196 0.03829,-0.128276 -0.01367,-0.171875 L 19.59375,1.8535156 c -0.02598,-0.0218 -0.05867,-0.030071 -0.08984,-0.027344 z M 6.070321,7.970704 c -0.03023,0.0081 -0.05726,0.02727 -0.07422,0.05664 L 5.083992,9.607422 c -0.03391,0.05874 -0.01382,0.134054 0.04492,0.167969 l 4.208984,2.429687 c -0.0033,-0.0534 -0.01563,-0.104015 -0.01563,-0.158203 0,-0.703671 0.283149,-1.34203 0.736328,-1.816406 L 6.164063,7.982422 c -0.02937,-0.01696 -0.06352,-0.01982 -0.09375,-0.01172 z"
   inkscape:connector-curvature="0"
  />
</svg>
