<?xml version="1.0" encoding="UTF-8"?>
<svg version="1.1" viewBox="0 0 24 24" xmlns="http://www.w3.org/2000/svg" xmlns:cc="http://creativecommons.org/ns#" xmlns:dc="http://purl.org/dc/elements/1.1/" xmlns:rdf="http://www.w3.org/1999/02/22-rdf-syntax-ns#" xmlns:xlink="http://www.w3.org/1999/xlink">
<metadata>
<rdf:RDF>
<cc:Work rdf:about="">
<dc:format>image/svg+xml</dc:format>
<dc:type rdf:resource="http://purl.org/dc/dcmitype/StillImage"/>
<dc:title/>
</cc:Work>
</rdf:RDF>
</metadata>
<g transform="translate(0,-24)">
<path d="m3.251 26c-0.75098 0-1.251 0.5-1.251 1.112v2.778c0 0.61003 0.5 1.11 1.1122 1.11h2.7776c0.61024 0 1.1102-0.5 1.1102-1.11v-2.778c0-0.61198-0.5-1.112-1.1102-1.112zm0.74902 1h1c1 0 1 0 1 1v1c0 1 0 1-1 1h-1c-1 0-1 0-1-1v-1c0-1 0-1 1-1zm-0.74902 6c-0.75098 0-1.251 0.5-1.251 1.112v2.778c0 0.61003 0.5 1.11 1.1122 1.11h2.7776c0.61024 0 1.1102-0.5 1.1102-1.11v-2.778c0-0.61198-0.5-1.112-1.1102-1.112zm0.74902 1h1c1 0 1 0 1 1v1c0 1 0 1-1 1h-1c-1 0-1 0-1-1v-1c0-1 0-1 1-1zm12.5-5v1h3v-1zm-2.5-0.5v1.5h2v-1.5zm-5-0.31836v1.8184h4v-1.5h-1v0.5h-1v-0.81836h-2zm10 6.8184v2h2.5v-2zm-5.5 0v2h2.5v-2zm-2.738 0.5v1.5h1.5721v-1.5zm-1.762-0.5v2h1.5721v-2zm7.5 0.5v1.5h2v-1.5zm1.5 6.6815v1.8185h3.5v-1.8185zm-2.738 0.31847v1.5h1.5721v-1.5zm-1.762-0.5v2h1.5721v-2zm-4.5 0.18153v1.8185h3.7699v-1.8185zm-5.749-1.1815c-0.75098 0-1.251 0.5-1.251 1.112v2.778c0 0.61003 0.5 1.11 1.1122 1.11h2.7776c0.61024 0 1.1102-0.5 1.1102-1.11v-2.778c0-0.61198-0.5-1.112-1.1102-1.112zm0.74902 1h1c1 0 1 0 1 1v1c0 1 0 1-1 1h-1c-1 0-1 0-1-1v-1c0-1 0-1 1-1z" color="#bebebe" color-rendering="auto" dominant-baseline="auto" fill="#666" image-rendering="auto" shape-rendering="auto" solid-color="#000000" style="font-feature-settings:normal;font-variant-alternates:normal;font-variant-caps:normal;font-variant-ligatures:normal;font-variant-numeric:normal;font-variant-position:normal;isolation:auto;mix-blend-mode:normal;shape-padding:0;text-decoration-color:#000000;text-decoration-line:none;text-decoration-style:solid;text-indent:0;text-orientation:mixed;text-transform:none;white-space:normal"/>
</g>
</svg>

