<?xml version="1.0" encoding="UTF-8" standalone="no"?>
<svg
   xmlns:dc="http://purl.org/dc/elements/1.1/"
   xmlns:cc="http://creativecommons.org/ns#"
   xmlns:rdf="http://www.w3.org/1999/02/22-rdf-syntax-ns#"
   xmlns:svg="http://www.w3.org/2000/svg"
   xmlns="http://www.w3.org/2000/svg"
   xmlns:sodipodi="http://sodipodi.sourceforge.net/DTD/sodipodi-0.dtd"
   xmlns:inkscape="http://www.inkscape.org/namespaces/inkscape"
   version="1.1"
   viewBox="0 0 24 24"
   id="svg19"
   sodipodi:docname="go-to-done-symbolic.svg"
   inkscape:version="0.92.3 (2405546, 2018-03-11)">
  <sodipodi:namedview
     pagecolor="#ffffff"
     bordercolor="#666666"
     borderopacity="1"
     objecttolerance="10"
     gridtolerance="10"
     guidetolerance="10"
     inkscape:pageopacity="0"
     inkscape:pageshadow="2"
     inkscape:window-width="1920"
     inkscape:window-height="1017"
     id="namedview21"
     showgrid="false"
     inkscape:zoom="9.8333333"
     inkscape:cx="12"
     inkscape:cy="12"
     inkscape:window-x="0"
     inkscape:window-y="30"
     inkscape:window-maximized="1"
     inkscape:current-layer="svg19" />
  <defs>
  </defs>
  <metadata
     id="metadata9">
    <rdf:RDF>
      <cc:Work
         rdf:about="">
        <dc:format>image/svg+xml</dc:format>
        <dc:type
           rdf:resource="http://purl.org/dc/dcmitype/StillImage" />
        <dc:title />
      </cc:Work>
    </rdf:RDF>
  </metadata>
  <path
     style="fill:#bebebe;stroke-width:1.0181427;fill-opacity:1;stroke:none"
     d="M 20.802734 0.9765625 C 20.35955 0.99604589 19.944801 1.041045 19.548828 1.1289062 C 18.752855 1.3055227 18.035125 1.667159 17.394531 2.28125 L 17.380859 2.2949219 L 17.367188 2.3105469 C 13.476414 6.6881847 10.15161 11.491022 7 16.355469 C 6.8801154 16.532119 6.8572581 16.532794 6.8359375 16.550781 C 6.741903 16.426652 6.5785961 16.091559 6.4042969 15.771484 L 6.4023438 15.765625 C 6.2552571 15.460909 6.0661843 14.772523 5.8457031 14.181641 C 5.735057 13.885113 5.6211209 13.608093 5.4335938 13.365234 C 5.3398301 13.243805 5.2240439 13.124863 5.0488281 13.042969 C 4.8736123 12.961074 4.6329124 12.944959 4.4394531 13.013672 L 4.4824219 13 L 4.0273438 13.117188 L 3.5507812 13.279297 C 2.9883371 13.431093 2.4234461 13.662322 1.9511719 14.046875 C 1.4788977 14.431428 1.1095828 14.988112 0.99804688 15.691406 L 0.98632812 15.761719 L 0.99609375 15.832031 C 1.1807921 17.374804 1.7747081 18.774516 2.2207031 20.128906 L 2.2304688 20.158203 L 2.2441406 20.185547 C 2.4376909 20.597751 2.6860384 21.243761 3.0273438 21.816406 C 3.1979963 22.102729 3.3918733 22.374985 3.6425781 22.597656 C 3.8932829 22.820327 4.2237732 22.997622 4.6035156 23.005859 L 4.6113281 23.005859 L 4.6191406 23.005859 C 5.2050715 23.001159 5.8216927 23.030443 6.375 23.001953 C 6.9283073 22.973463 7.4619882 22.938753 7.8535156 22.501953 L 7.8789062 22.474609 L 7.8984375 22.445312 C 12.017981 16.234869 16.522314 10.081771 21.337891 4.3710938 L 21.355469 4.3496094 C 21.645086 4.0400316 22.163546 3.4265863 22.546875 2.8242188 C 22.741288 2.5187164 22.907608 2.2400658 22.970703 1.9023438 C 23.002251 1.7334827 23.013955 1.507425 22.861328 1.2871094 C 22.709083 1.0673444 22.435987 0.98215578 22.230469 0.98046875 L 22.228516 0.98046875 C 21.717538 0.96311136 21.245919 0.95707911 20.802734 0.9765625 z "
     id="path11" />
</svg>
