<?xml version="1.0" encoding="UTF-8"?>
<svg version="1.1" viewBox="0 0 24 24" xmlns="http://www.w3.org/2000/svg" xmlns:cc="http://creativecommons.org/ns#" xmlns:dc="http://purl.org/dc/elements/1.1/" xmlns:rdf="http://www.w3.org/1999/02/22-rdf-syntax-ns#" xmlns:xlink="http://www.w3.org/1999/xlink">
<defs>
<radialGradient id="a" cx="12.5" cy="36.242" r="10.852" gradientTransform="matrix(1 0 0 1.0288 -.54484 -1.3303)" gradientUnits="userSpaceOnUse">
<stop stop-color="#75de75" offset="0"/>
<stop stop-color="#53cc53" offset="1"/>
</radialGradient>
</defs>
<metadata>
<rdf:RDF>
<cc:Work rdf:about="">
<dc:format>image/svg+xml</dc:format>
<dc:type rdf:resource="http://purl.org/dc/dcmitype/StillImage"/>
<dc:title/>
</cc:Work>
</rdf:RDF>
</metadata>
<g transform="translate(0,-24)">
<g transform="matrix(1.0362 0 0 1.0004 -.57207 .47837)">
<path d="m4.8281 37.023c0.78333-0.25148 1.0876 1.6747 1.4621 2.4724 0.31001 0.58392 0.66315 1.8089 1.4241 0.64784 3.0378-4.8557 6.2339-9.6374 9.9649-13.984 1.1177-1.1095 2.3615-1.2289 4.3208-1.1592 0.84371 0.0054-0.71292 1.981-1.2132 2.5316-4.6686 5.731-9.0319 11.902-13.021 18.129-0.38605 0.44598-1.5938 0.32397-2.7605 0.33361-0.89817-0.020176-1.4443-1.6458-1.8435-2.5261-0.43876-1.3797-0.99406-2.7476-1.1614-4.195 0.17764-1.1599 1.1058-1.7193 2.106-1.9989l0.472-0.1663z" fill="url(#a)"/>
<path d="m5 37c0.61146-0.22495 0.91574 1.7017 1.2903 2.4997 0.31001 0.58407 0.66315 1.8094 1.4241 0.64801 3.0378-4.857 6.2339-9.6399 9.9649-13.988 1.1177-1.1098 2.3615-1.2292 4.3208-1.1595 0.84371 0.0054-0.71292 1.9815-1.2132 2.5322-4.6686 5.7325-9.0319 11.905-13.021 18.134-0.38605 0.4461-1.5938 0.32406-2.7605 0.3337-0.89817-0.020185-1.4443-1.6462-1.8435-2.5268-0.43876-1.3801-0.99406-2.7483-1.1614-4.1961 0.17764-1.1602 1.1058-1.7198 2.106-1.9994l0.472-0.16634z" fill="none" opacity=".7" stroke="#008033"/>
</g>
</g>
</svg>

